<svg width="252" height="121" viewBox="0 0 252 121" fill="none" xmlns="http://www.w3.org/2000/svg">
<path d="M54.4 95.62C52.7 96.04 51.52 95.65 50.19 94.79C46.77 92.57 43.16 90.64 38.93 90.44C31.35 90.08 27.63 98.49 29.77 103.4C29.96 103.84 30.15 104.28 30.33 104.73C30.9033 106.19 31.8867 107.263 33.28 107.95C33.12 110.22 34.46 111.96 35.58 113.8C36.91 115.98 36.74 117.31 34.81 118.96C33.92 119.72 32.97 120.84 31.98 120.92C31.19 120.98 30.28 119.72 29.43 119.04C27.06 117.15 24.62 115.34 22.34 113.35C19.14 110.56 16.36 107.36 13.97 103.83C11.6 100.33 8.96001 97 6.76001 93.4C3.43001 87.96 1.62 81.88 0.529997 75.66C-2.5034e-06 72.62 0.260002 69.44 0.160002 66.33C0.160002 66.01 0.220012 65.68 0.170012 65.37C-0.419988 61.26 0.819995 57.33 2.34 53.77C4.19 49.44 6.79999 45.36 10.87 42.51C15.72 39.1 20.8 36.19 26.54 34.51C29.14 33.75 31.62 32.6 34.24 31.93C36.07 31.46 38.03 31.42 39.94 31.31C43.86 31.09 47.74 31.34 51.57 32.35C60.92 34.81 68.38 40.22 74.95 47.07C75.63 47.78 76.22 48.59 77.02 49.55C77.5 47.87 77.91 46.54 78.25 45.19C78.79 43.04 79.8 41.16 81.37 39.62C82.36 38.65 82.58 37.58 82.13 36.35C79.73 29.67 77.51 22.9 73.33 17.02C72.71 16.14 71.81 15.27 72.62 13.98C74.72 13.48 76.75 13.46 78.9 14.17C81.08 14.89 83.4 15.22 85.68 15.57C90.22 16.26 94.46 17.89 98.73 19.43C99.41 19.67 100.09 19.9 100.78 20.1C101.62 20.34 102.29 20.15 102.9 19.43C105.45 16.38 108.84 14.37 112.04 12.13C113.22 11.31 114.47 10.58 115.59 9.69002C118.46 7.42002 122.02 6.54003 125.19 4.89003C126.21 4.36003 127.21 4.77001 127.61 6.12001C129.24 11.6 131.74 16.83 132.29 22.63C132.61 25.97 131.29 28.68 129.52 31.3C129.34 31.56 129.18 31.83 129.07 32.02C131.44 35.89 133.76 39.67 136.22 43.7C136.59 43.29 137.07 42.91 137.35 42.43C138.91 39.65 140.28 36.76 141.98 34.08C144.55 30.05 147.06 25.96 150.46 22.52C151.75 21.22 152.8 19.69 154.02 18.31C157.37 14.5 161.13 11.18 165.71 8.90004C168.85 7.33004 171.9 5.47999 175.19 4.34999C183.32 1.56999 191.68 -0.129984 200.35 0.310016C201.95 0.390016 203.55 0.49004 205.14 0.46004C210.39 0.36004 214.9 2.62005 219.43 4.84005C221.89 6.04005 223.96 7.73002 225.96 9.63002C229.2 12.72 232.53 15.68 235.5 19.05C242.56 27.06 247.59 36.02 249.57 46.65C250.58 52.1 251.06 57.58 251.13 63.08C251.18 67.06 250.48 71.02 249 74.78C248.24 76.71 247.26 78.57 246.68 80.55C245.8 83.54 243.22 84.6 240.91 85.93C239.86 86.53 238.85 85.85 238.76 84.57C238.69 83.56 238.79 82.51 238.99 81.51C239.45 79.25 240.08 77.02 240.51 74.75C240.79 73.29 240.45 71.9 239.45 70.71C238.94 70.1 238.52 69.41 238.05 68.76C234.52 63.85 231.38 62.89 225.1 64.39C222.08 65.11 219.08 65.96 216.14 66.96C213.07 68 210.55 70.01 208.23 72.22C207.62 72.81 207.03 73.62 206.86 74.42C206.51 76.13 205.25 77.16 204.25 78.36C203.95 78.72 203.03 78.92 202.63 78.72C202.19 78.5 201.74 77.7 201.8 77.21C202.57 70.82 199.35 66.24 195.09 62.1C192.59 59.66 189.68 57.89 186.38 56.8C183.48 55.84 180.85 56.55 178.57 58.52C175.77 60.93 173.31 63.61 171.89 67.12C171.45 68.21 170.74 69.19 170.22 70.26C169.61 71.51 168.58 71.8 167.58 70.85C167.14 70.43 166.86 69.82 166.61 69.25C164.18 63.69 160.05 59.67 154.92 56.66C152.8 55.41 150.48 54.51 148.23 53.51C145.68 52.38 143.11 52.62 140.54 53.55C138.38 54.33 136.88 55.79 136.01 57.85C135.06 60.12 134.27 62.46 133.33 64.73C131.69 68.69 129 71.83 125.31 73.98C122.08 75.86 118.59 77.08 114.93 78.08C107.75 80.04 101.18 78.37 94.75 75.51C90.73 73.72 87.09 71.21 83.72 68.37C82.63 67.45 81.63 66.38 80.8 65.23C80.09 64.25 79.26 63.75 78.11 63.47C74.57 62.61 71.3 63.11 68.27 65.14C65.7 66.86 63.73 71.43 64.94 73.99C65.85 75.92 66.8 77.85 67.9 79.68C68.64 80.91 69.16 82.01 68.51 83.45C67.98 84.63 67.68 84.93 66.6 84.38C65.7 83.92 64.76 83.35 64.12 82.59C62.73 80.92 60.92 79.94 58.99 79.17C56.95 78.35 53.49 79.29 52.21 81.03C51.84 81.53 51.76 82.36 51.8 83.03C51.97 85.69 52.64 88.24 53.81 90.62C54.59 92.21 54.64 93.81 54.37 95.64L54.4 95.62ZM244.93 71.91C245.26 71.3 245.63 70.92 245.66 70.52C245.78 68.54 246.04 66.53 245.83 64.57C245.45 61 244.83 57.46 244.2 53.92C243.74 51.33 243.38 48.68 242.49 46.23C241.63 43.85 240.18 41.69 238.95 39.45C236.38 34.76 233.77 30.1 231.23 25.4C229.93 23.01 228.78 20.52 226.55 18.83C223.18 16.28 219.86 13.63 216.32 11.33C211.09 7.94003 205.45 5.63001 199.01 6.18001C196.31 6.41001 193.6 6.63002 190.93 7.06002C188.9 7.39002 186.92 8.08005 184.91 8.53005C178.79 9.88005 173.02 12.02 167.62 15.31C163.02 18.11 158.67 21.18 154.78 24.88C153 26.57 151.25 28.37 149.87 30.38C146.85 34.78 144.06 39.34 141.2 43.86C139.98 45.79 138.83 47.77 137.38 50.17C138.36 50.01 138.94 49.99 139.47 49.82C140.91 49.34 142.29 48.68 143.75 48.29C148.75 46.94 153.05 48.74 156.96 51.63C160.74 54.43 164.55 57.22 167.69 60.79C168.56 61.78 169.01 61.62 169.88 60.42C170.63 59.38 171.36 58.33 172.18 57.36C176.53 52.18 182.07 50.08 188.63 51.83C191.67 52.64 194.59 54.12 197.33 55.71C198.99 56.67 200.42 58.27 201.52 59.88C202.91 61.9 203.85 64.23 204.99 66.42C205.23 66.88 205.51 67.32 205.89 67.96C206.96 66.79 207.77 65.7 208.77 64.82C213.3 60.84 218.68 58.78 224.63 58.35C226.91 58.19 229.28 58.13 231.47 59.14C233.21 59.94 235 60.67 236.65 61.64C240.24 63.76 243.15 66.51 244.26 70.73C244.35 71.08 244.63 71.37 244.95 71.92L244.93 71.91ZM76.86 58.36C75.76 56.67 74.76 54.99 73.61 53.4C72.73 52.19 71.85 50.85 70.65 50.04C65.11 46.28 59.86 42.11 53.81 39.07C49.23 36.77 44.52 35.8 39.5 35.89C38.79 35.9 38.08 36.05 37.37 36.17C31.17 37.19 25.9 40.46 20.49 43.33C18.98 44.13 17.79 45.54 16.43 46.64C11.53 50.6 8.21 55.5 7.35 61.87C7.25 62.58 7.02999 63.28 6.98999 64C6.87999 66.22 6.52 68.48 6.81 70.65C7.71 77.53 8.88 84.36 11.16 90.96C13.16 96.75 15.86 101.96 21.49 105.08C22.25 105.5 22.89 106.13 23.62 106.63C24.03 106.91 24.49 107.11 25.01 107.4C23.92 104.32 22.99 101.4 21.86 98.57C21.27 97.1 21.28 95.81 21.97 94.44C22.33 93.73 22.54 92.94 22.92 92.24C24.29 89.7 25.82 87.24 28.24 85.58C32.05 82.97 36.25 83.23 40.46 84.32C42.36 84.81 44.18 85.6 45.93 86.21C46.43 83.52 46.76 81.01 47.38 78.58C48.09 75.77 50.47 74.48 52.81 73.18C55.18 71.87 57.71 72.3 60.36 72.5C60.2 69.2 61.24 66.39 62.62 63.67C63.53 61.87 64.92 60.44 66.83 60.01C69.99 59.29 73.24 58.94 76.86 58.37V58.36ZM81.29 19C81.16 19.16 81.03 19.32 80.91 19.48C81.16 20.04 81.37 20.62 81.67 21.15C84.36 25.89 86.43 30.89 88.22 36.03C88.65 37.28 88.97 38.38 87.87 39.56C86.97 40.54 86.36 41.8 85.69 42.98C85.34 43.59 84.93 44.25 84.87 44.92C84.5 49.41 84.9 53.85 85.86 58.24C86.06 59.16 86.48 60.06 86.94 60.89C89.02 64.63 92.28 67.01 96.21 68.45C98.82 69.41 101.56 70.03 104.2 70.94C108.77 72.52 113.46 72.48 118.18 72.16C119.15 72.09 119.99 71.81 120.71 71.02C122.48 69.08 124.47 67.34 126.15 65.33C129.9 60.85 131.31 55.72 130.02 49.93C128.76 44.28 126.88 38.87 123.74 33.97C123 32.81 123.07 32 124.02 31.03C124.6 30.44 125.24 29.57 125.23 28.82C125.19 23.47 125.02 18.11 124.8 12.76C124.76 11.78 124.31 10.82 124.09 9.99001C123.72 9.92001 123.61 9.86004 123.56 9.90004C117.59 14.04 111.41 17.9 106.32 23.17C105.09 24.44 103.7 24.94 102 24.67C101.21 24.55 100.41 24.44 99.65 24.2C96.53 23.23 93.44 22.14 90.29 21.24C87.32 20.39 84.29 19.74 81.29 19Z" fill="black"/>
<path d="M151.44 107.24C151.01 107.04 150.49 106.93 150.17 106.62C149.97 106.43 150.06 105.94 150.01 105.58C150.37 105.58 150.83 105.43 151.05 105.6C151.38 105.86 151.54 106.33 151.78 106.72C151.67 106.89 151.55 107.07 151.44 107.24Z" fill="black"/>
<path d="M244.93 71.91C244.6 71.36 244.33 71.07 244.24 70.72C243.12 66.49 240.21 63.75 236.63 61.63C234.99 60.66 233.19 59.94 231.45 59.13C229.26 58.12 226.89 58.18 224.61 58.34C218.65 58.77 213.28 60.83 208.75 64.81C207.75 65.69 206.94 66.77 205.87 67.95C205.49 67.3 205.21 66.87 204.97 66.41C203.83 64.22 202.88 61.89 201.5 59.87C200.4 58.26 198.97 56.66 197.31 55.7C194.58 54.11 191.65 52.63 188.61 51.82C182.05 50.07 176.52 52.18 172.16 57.35C171.34 58.33 170.61 59.38 169.86 60.41C168.99 61.62 168.54 61.77 167.67 60.78C164.53 57.21 160.72 54.42 156.94 51.62C153.03 48.73 148.73 46.93 143.73 48.28C142.27 48.67 140.89 49.33 139.45 49.81C138.92 49.99 138.34 50 137.36 50.16C138.81 47.76 139.96 45.78 141.18 43.85C144.04 39.33 146.83 34.77 149.85 30.37C151.23 28.36 152.98 26.56 154.76 24.87C158.65 21.17 163 18.1 167.6 15.3C173 12.02 178.76 9.87001 184.89 8.52001C186.91 8.08001 188.88 7.37998 190.91 7.04998C193.58 6.61998 196.29 6.39997 198.99 6.16997C205.43 5.61997 211.07 7.93 216.3 11.32C219.84 13.62 223.16 16.26 226.53 18.82C228.76 20.51 229.92 23 231.21 25.39C233.76 30.09 236.37 34.75 238.93 39.44C240.16 41.68 241.61 43.85 242.47 46.22C243.36 48.67 243.72 51.32 244.18 53.91C244.81 57.45 245.42 60.99 245.81 64.56C246.02 66.52 245.76 68.53 245.64 70.51C245.62 70.91 245.24 71.29 244.91 71.9L244.93 71.91Z" fill="#E53939"/>
<path d="M76.86 58.36C73.24 58.93 69.99 59.28 66.83 60C64.92 60.43 63.52 61.8599 62.62 63.6599C61.25 66.3799 60.21 69.19 60.36 72.49C57.71 72.3 55.18 71.86 52.81 73.17C50.47 74.47 48.09 75.76 47.38 78.57C46.76 81.01 46.43 83.52 45.93 86.2C44.18 85.59 42.36 84.8 40.46 84.31C36.26 83.23 32.05 82.96 28.24 85.57C25.82 87.23 24.29 89.69 22.92 92.23C22.54 92.93 22.33 93.72 21.97 94.43C21.28 95.8 21.27 97.09 21.86 98.56C23 101.39 23.93 104.31 25.01 107.39C24.49 107.11 24.03 106.91 23.62 106.62C22.9 106.12 22.25 105.49 21.49 105.07C15.87 101.95 13.17 96.74 11.16 90.95C8.88 84.35 7.70999 77.52 6.80999 70.64C6.51999 68.47 6.87999 66.21 6.98999 63.99C7.02999 63.28 7.25 62.58 7.35 61.86C8.21 55.49 11.53 50.59 16.43 46.63C17.79 45.53 18.98 44.12 20.49 43.32C25.9 40.45 31.17 37.1799 37.37 36.1599C38.08 36.0399 38.79 35.89 39.5 35.88C44.52 35.79 49.23 36.76 53.81 39.06C59.86 42.09 65.11 46.26 70.65 50.03C71.85 50.84 72.73 52.19 73.61 53.39C74.76 54.97 75.76 56.6599 76.86 58.3499V58.36ZM24.1 86.62C23.94 86.52 23.78 86.36 23.74 86.39C23.57 86.5 23.43 86.67 23.29 86.82C23.43 86.91 23.63 87.12 23.69 87.08C23.86 86.98 23.97 86.78 24.11 86.62H24.1Z" fill="#E53939"/>
<path d="M81.28 19C84.28 19.74 87.31 20.4 90.28 21.24C93.42 22.14 96.51 23.23 99.64 24.2C100.4 24.44 101.2 24.54 101.99 24.67C103.69 24.94 105.09 24.44 106.31 23.17C111.4 17.9 117.59 14.04 123.55 9.9C123.6 9.87 123.7 9.91996 124.08 9.98996C124.3 10.82 124.75 11.79 124.79 12.76C125.01 18.11 125.17 23.46 125.22 28.82C125.22 29.56 124.58 30.44 124.01 31.03C123.06 32 122.98 32.8099 123.73 33.9699C126.88 38.8699 128.75 44.28 130.01 49.93C131.3 55.72 129.89 60.85 126.14 65.33C124.46 67.34 122.47 69.08 120.7 71.02C119.98 71.81 119.14 72.0999 118.17 72.1599C113.45 72.4799 108.76 72.52 104.19 70.94C101.55 70.03 98.82 69.41 96.2 68.45C92.27 67.01 89.01 64.62 86.93 60.89C86.47 60.06 86.05 59.16 85.85 58.24C84.89 53.85 84.49 49.41 84.86 44.92C84.92 44.25 85.33 43.59 85.68 42.98C86.36 41.81 86.96 40.54 87.86 39.56C88.95 38.37 88.64 37.28 88.21 36.03C86.42 30.89 84.35 25.89 81.66 21.15C81.36 20.62 81.15 20.04 80.9 19.48C81.03 19.32 81.16 19.16 81.28 19ZM103.38 50.17C103.45 46.13 101.41 43.6 97.76 42.15C94.42 40.82 92.78 41.27 90.98 44.34C89.75 46.43 88.68 48.66 89.6 51.14C90.34 53.14 91.23 55.1 92.85 56.64C95.1 58.78 97.78 58.84 99.97 56.69C100.42 56.24 100.95 55.86 101.36 55.38C102.64 53.88 103.37 52.16 103.38 50.18V50.17ZM117 53.86C119.59 53.94 121.78 52.78 122.69 50.68C122.94 50.11 122.95 49.28 122.74 48.69C121.79 46.05 120.16 43.95 117.58 42.69C116.22 42.03 114.89 41.3 113.51 40.69C111.84 39.97 109.45 40.64 108.38 42.25C107.13 44.13 106.94 45.3 108.26 47.07C108.93 47.96 109.6 48.87 110.13 49.84C111.62 52.6 114.04 53.68 117.01 53.84L117 53.86Z" fill="#E53939"/>
<path d="M24.1 86.62C23.96 86.79 23.85 86.98 23.68 87.08C23.62 87.12 23.42 86.91 23.28 86.82C23.43 86.67 23.56 86.5 23.73 86.39C23.77 86.36 23.94 86.52 24.09 86.62H24.1Z" fill="black"/>
<path d="M103.38 50.17C103.37 52.14 102.64 53.87 101.36 55.37C100.95 55.85 100.43 56.24 99.97 56.68C97.77 58.84 95.1 58.77 92.85 56.63C91.23 55.09 90.34 53.13 89.6 51.13C88.68 48.65 89.75 46.42 90.98 44.33C92.78 41.27 94.42 40.81 97.76 42.14C101.41 43.6 103.45 46.12 103.38 50.16V50.17ZM98.25 52.89C99.69 50.62 99.28 48.54 98.04 46.52C97.36 45.41 96.35 45.4 95.54 46.41C93.62 48.84 94.95 52.26 98.25 52.88V52.89Z" fill="black"/>
<path d="M117 53.87C114.03 53.7 111.61 52.63 110.12 49.87C109.59 48.89 108.92 47.9899 108.25 47.0999C106.93 45.3199 107.12 44.16 108.37 42.28C109.44 40.67 111.84 39.9999 113.5 40.7199C114.88 41.3199 116.21 42.0499 117.57 42.7199C120.16 43.9799 121.79 46.0799 122.73 48.7199C122.94 49.3099 122.93 50.13 122.68 50.71C121.78 52.8 119.58 53.96 116.99 53.89L117 53.87ZM118.59 49.64C117.53 48.32 116.76 47.1 115.73 46.2C115.09 45.64 114.04 45.45 113.15 45.33C112.41 45.23 112.06 45.84 112.12 46.59C112.26 48.46 115.87 50.88 117.68 50.31C117.89 50.24 118.06 50.04 118.6 49.64H118.59Z" fill="black"/>
<path d="M98.26 52.9C94.96 52.28 93.63 48.86 95.55 46.43C96.35 45.41 97.37 45.43 98.05 46.54C99.29 48.56 99.7 50.63 98.26 52.91V52.9Z" fill="white"/>
<path d="M118.59 49.64C118.05 50.04 117.88 50.25 117.67 50.31C115.87 50.88 112.26 48.4601 112.11 46.5901C112.05 45.8401 112.4 45.23 113.14 45.33C114.04 45.45 115.08 45.64 115.72 46.2C116.76 47.1 117.52 48.32 118.58 49.64H118.59Z" fill="white"/>
<path d="M142.03 48.85C144.6 44.77 147.14 40.66 149.87 36.69C151.25 34.68 153 32.88 154.78 31.19C158.67 27.49 163.02 24.42 167.62 21.62C173.02 18.34 178.78 16.19 184.91 14.84C186.93 14.4 188.9 13.7 190.93 13.37C193.6 12.94 196.31 12.72 199.01 12.49C205.45 11.94 211.09 14.25 216.32 17.64C219.86 19.94 223.18 22.58 226.55 25.14C228.78 26.83 229.94 29.32 231.23 31.71C233.78 36.41 236.39 41.07 238.95 45.76C240.18 48 241.63 50.17 242.49 52.54C243.38 54.99 243.74 57.64 244.2 60.23C244.77 63.43 245.32 66.65 245.7 69.87C245.83 68.1 246.01 66.31 245.82 64.56C245.44 60.99 244.82 57.45 244.19 53.91C243.73 51.32 243.37 48.67 242.48 46.22C241.62 43.84 240.17 41.68 238.94 39.44C236.37 34.75 233.76 30.09 231.22 25.39C229.92 23 228.77 20.51 226.54 18.82C223.17 16.27 219.85 13.62 216.31 11.32C211.08 7.93 205.44 5.61997 199 6.16997C196.3 6.39997 193.59 6.61998 190.92 7.04998C188.89 7.37998 186.91 8.07001 184.9 8.52001C178.78 9.87001 173.01 12.01 167.61 15.3C163.01 18.1 158.66 21.17 154.77 24.87C152.99 26.56 151.24 28.36 149.86 30.37C146.84 34.77 144.05 39.33 141.19 43.85C139.97 45.78 138.82 47.76 137.37 50.16C138.35 50 138.93 49.98 139.46 49.81C140.32 49.52 141.17 49.17 142.03 48.85Z" fill="#C60202"/>
<path d="M15.21 94.68C12.93 88.08 11.76 81.25 10.86 74.37C10.57 72.2 10.93 69.9399 11.04 67.7199C11.08 67.0099 11.3 66.31 11.4 65.59C12.26 59.22 15.58 54.32 20.48 50.36C21.84 49.26 23.03 47.85 24.54 47.05C29.95 44.18 35.22 40.91 41.42 39.89C42.13 39.77 42.84 39.62 43.55 39.61C48.57 39.52 53.28 40.49 57.86 42.79C63.31 45.52 68.11 49.17 73.05 52.62C72.35 51.65 71.6 50.68 70.65 50.03C65.11 46.27 59.86 42.1 53.81 39.06C49.23 36.76 44.52 35.79 39.5 35.88C38.79 35.89 38.08 36.0399 37.37 36.1599C31.17 37.1799 25.9 40.45 20.49 43.32C18.98 44.12 17.79 45.53 16.43 46.63C11.53 50.59 8.21 55.49 7.35 61.86C7.25 62.57 7.02999 63.27 6.98999 63.99C6.87999 66.21 6.51999 68.47 6.80999 70.64C7.70999 77.52 8.88 84.35 11.16 90.95C12.99 96.24 15.41 101.05 20.11 104.22C17.89 101.47 16.42 98.18 15.2 94.67L15.21 94.68Z" fill="#C60202"/>
<path d="M85.68 47.19C86.36 46.02 86.96 44.75 87.86 43.77C88.95 42.58 88.64 41.49 88.21 40.24C88.12 39.98 88.03 39.73 87.94 39.47C87.91 39.5 87.9 39.53 87.87 39.56C86.97 40.54 86.36 41.8 85.69 42.98C85.34 43.59 84.93 44.25 84.87 44.92C84.72 46.74 84.7 48.56 84.79 50.37C84.81 49.95 84.83 49.54 84.87 49.12C84.93 48.45 85.34 47.79 85.69 47.18L85.68 47.19Z" fill="#C60202"/>
<path d="M89.6 55.34C90.34 57.34 91.23 59.3 92.85 60.84C95.1 62.98 97.78 63.04 99.97 60.89C100.43 60.44 100.95 60.06 101.36 59.58C102.64 58.08 103.37 56.36 103.38 54.38C103.39 53.54 103.3 52.78 103.13 52.06C102.82 53.27 102.22 54.37 101.36 55.37C100.95 55.85 100.43 56.24 99.97 56.68C97.77 58.84 95.1 58.77 92.85 56.63C91.27 55.12 90.39 53.22 89.65 51.27C89.21 52.56 89.06 53.9 89.6 55.33V55.34Z" fill="#C60202"/>
<path d="M124 35.24C123.05 36.21 122.97 37.02 123.72 38.18C126.87 43.08 128.74 48.49 130 54.14C130.15 54.81 130.26 55.47 130.34 56.13C130.59 54.16 130.48 52.09 130 49.94C128.82 44.65 127.09 39.57 124.29 34.93C124.19 35.04 124.1 35.15 124 35.25V35.24Z" fill="#C60202"/>
<path d="M82.99 23.62C85.43 24.2 87.87 24.77 90.28 25.45C93.42 26.35 96.51 27.44 99.64 28.41C100.4 28.65 101.2 28.75 101.99 28.88C103.69 29.15 105.09 28.65 106.31 27.38C111.4 22.11 117.59 18.25 123.55 14.11C123.6 14.08 123.7 14.13 124.08 14.2C124.3 15.03 124.75 16 124.79 16.97C124.96 21.07 125.07 25.16 125.15 29.26C125.19 29.11 125.22 28.96 125.22 28.82C125.18 23.47 125.01 18.11 124.79 12.76C124.75 11.78 124.3 10.82 124.08 9.99002C123.71 9.92002 123.6 9.86005 123.55 9.90005C117.58 14.0401 111.4 17.9 106.31 23.17C105.08 24.44 103.69 24.94 101.99 24.67C101.2 24.55 100.4 24.44 99.64 24.2C96.52 23.23 93.43 22.14 90.28 21.24C87.31 20.39 84.28 19.74 81.28 19C81.15 19.16 81.02 19.32 80.9 19.48C81.15 20.04 81.36 20.6201 81.66 21.1501C82.12 21.9601 82.56 22.78 82.98 23.61L82.99 23.62Z" fill="#C60202"/>
<path d="M108.25 51.3C108.92 52.19 109.59 53.1 110.12 54.07C111.61 56.83 114.03 57.91 117 58.07C119.59 58.15 121.78 56.99 122.69 54.89C122.94 54.32 122.95 53.49 122.74 52.9C122.57 52.44 122.38 52 122.17 51.58C121.09 53.1 119.19 53.93 117 53.86C114.03 53.69 111.61 52.62 110.12 49.86C109.59 48.88 108.92 47.98 108.25 47.09C108.2 47.02 108.16 46.95 108.11 46.88C107.11 48.52 107.03 49.65 108.25 51.29V51.3Z" fill="#C60202"/>
</svg>
